<svg width="1080" height="525" viewBox="0 0 1080 525" fill="none" xmlns="http://www.w3.org/2000/svg">
<rect x="473.5" y="367.5" width="21" height="21" stroke="#FC7F7D" stroke-width="3"/>
<rect x="543.5" y="167.5" width="21" height="21" stroke="#FC7F7D" stroke-width="3"/>
<rect x="551.151" y="259" width="21" height="21" transform="rotate(-45 551.151 259)" stroke="#FC7F7D" stroke-width="3"/>
<rect x="16.1213" y="172.971" width="21" height="21" transform="rotate(-45 16.1213 172.971)" stroke="#FC7F7D" stroke-width="3"/>
<rect x="767.121" y="451.971" width="21" height="21" transform="rotate(-45 767.121 451.971)" stroke="#FC7F7D" stroke-width="3"/>
<circle cx="428" cy="254" r="10.5" stroke="#FC7F7D" stroke-width="3"/>
<circle cx="999" cy="505" r="10.5" stroke="#FC7F7D" stroke-width="3"/>
<circle cx="238" cy="378" r="10.5" stroke="#FC7F7D" stroke-width="3"/>
<circle cx="1044" cy="230" r="10.5" stroke="#FC7F7D" stroke-width="3"/>
<circle cx="634" cy="12" r="10.5" stroke="#FC7F7D" stroke-width="3"/>
<circle cx="692" cy="366" r="10.5" stroke="#FC7F7D" stroke-width="3"/>
<circle cx="348" cy="508" r="10.5" stroke="#FC7F7D" stroke-width="3"/>
<circle cx="203" cy="63" r="10.5" stroke="#FC7F7D" stroke-width="3"/>
<circle cx="14" cy="307" r="10.5" stroke="#FC7F7D" stroke-width="3"/>
<rect x="273.5" y="391.5" width="21" height="22" stroke="#FC7F7D" stroke-width="3"/>
<rect x="657.5" y="470.5" width="21" height="21" stroke="#FC7F7D" stroke-width="3"/>
<rect x="1045.5" y="48.5" width="21" height="21" stroke="#FC7F7D" stroke-width="3"/>
<rect x="759.5" y="13.5" width="21" height="21" stroke="#FC7F7D" stroke-width="3"/>
<rect x="712.5" y="207.5" width="21" height="21" stroke="#FC7F7D" stroke-width="3"/>
<rect x="1057.5" y="391.5" width="21" height="21" stroke="#FC7F7D" stroke-width="3"/>
<rect x="3.5" y="24.5" width="21" height="21" stroke="#FC7F7D" stroke-width="3"/>
<rect x="75.5" y="446.5" width="21" height="21" stroke="#FC7F7D" stroke-width="3"/>
<rect x="227.5" y="155.5" width="21" height="21" stroke="#FC7F7D" stroke-width="3"/>
<path d="M500.5 429L499.337 418.529C499.178 417.098 500.537 415.973 501.912 416.396L508.793 418.513C510.241 418.959 511.639 417.695 511.342 416.209L510.206 410.528C509.898 408.99 511.4 407.713 512.869 408.263L518.099 410.225C519.575 410.778 521.081 409.487 520.759 407.944L519.65 402.622C519.349 401.177 520.662 399.916 522.093 400.273L527.41 401.603C528.953 401.988 530.307 400.507 529.784 399.005L527 391" stroke="#FC7F7D" stroke-width="3"/>
<path d="M771.5 319L770.337 308.529C770.178 307.098 771.537 305.973 772.912 306.396L779.793 308.513C781.241 308.959 782.639 307.695 782.342 306.209L781.206 300.528C780.898 298.99 782.4 297.713 783.869 298.263L789.099 300.225C790.575 300.778 792.081 299.487 791.759 297.944L790.65 292.622C790.349 291.177 791.662 289.916 793.093 290.273L798.41 291.603C799.953 291.988 801.307 290.507 800.784 289.005L798 281" stroke="#FC7F7D" stroke-width="3"/>
<path d="M409.5 109L408.337 98.5286C408.178 97.0979 409.537 95.9728 410.912 96.3961L417.793 98.5131C419.241 98.9586 420.639 97.6949 420.342 96.2093L419.206 90.5283C418.898 88.9901 420.4 87.7126 421.869 88.2634L427.099 90.2246C428.575 90.7779 430.081 89.4868 429.759 87.944L428.65 82.6215C428.349 81.1774 429.662 79.9156 431.093 80.2733L436.41 81.6026C437.953 81.9882 439.307 80.5069 438.784 79.0053L436 71" stroke="#FC7F7D" stroke-width="3"/>
<path d="M3.5 524L2.33651 513.529C2.17754 512.098 3.5366 510.973 4.91245 511.396L11.7925 513.513C13.2406 513.959 14.639 512.695 14.3419 511.209L13.2057 505.528C12.898 503.99 14.4003 502.713 15.8691 503.263L21.099 505.225C22.5745 505.778 24.0806 504.487 23.7592 502.944L22.6503 497.622C22.3494 496.177 23.6622 494.916 25.0934 495.273L30.4104 496.603C31.9528 496.988 33.3068 495.507 32.7844 494.005L30 486" stroke="#FC7F7D" stroke-width="3"/>
<path d="M156.5 350L155.337 339.529C155.178 338.098 156.537 336.973 157.912 337.396L164.793 339.513C166.241 339.959 167.639 338.695 167.342 337.209L166.206 331.528C165.898 329.99 167.4 328.713 168.869 329.263L174.099 331.225C175.575 331.778 177.081 330.487 176.759 328.944L175.65 323.622C175.349 322.177 176.662 320.916 178.093 321.273L183.41 322.603C184.953 322.988 186.307 321.507 185.784 320.005L183 312" stroke="#FC7F7D" stroke-width="3"/>
<path d="M867.5 86L866.33 75.1894C866.174 73.7543 867.544 72.6323 868.92 73.0669L875.791 75.2366C877.238 75.6935 878.647 74.4361 878.356 72.9469L877.191 66.9682C876.891 65.4252 878.406 64.1545 879.873 64.7191L885.096 66.7294C886.57 67.2965 888.089 66.0124 887.774 64.465L886.635 58.8522C886.341 57.4056 887.662 56.1502 889.092 56.5171L894.424 57.885C895.962 58.2798 897.325 56.8101 896.815 55.3058L894 47" stroke="#FC7F7D" stroke-width="3"/>
</svg>
