<svg width="540" height="541" viewBox="0 0 540 541" fill="none" xmlns="http://www.w3.org/2000/svg">
<path fill-rule="evenodd" clip-rule="evenodd" d="M247.107 0.434015C230.04 2.05824 201.89 7.93319 185.399 13.3135C91.9569 43.795 20.2394 125.362 3.06862 220.685L0 237.726H66.1179H132.236L134.096 230.788C139.339 211.23 153.852 187.211 170.387 170.724C203.581 137.628 252.759 123.065 299.222 132.574C347.4 142.435 388.774 179.471 404.379 226.707L408.018 237.726H474.008H540L538.457 227.523C534.114 198.774 521.867 163.859 507.109 138.15C465.802 66.1913 396.122 17.3014 315.135 3.45229C300.207 0.899243 260.652 -0.855569 247.107 0.434015ZM257.744 182.308C238.297 184.805 220.768 193.666 206.273 208.326C172.113 242.876 172.415 298.832 206.947 333.22C224.016 350.218 245.563 359.03 270.057 359.03C294.622 359.03 315.812 350.321 333.075 333.129C350.403 315.874 358.965 295.12 358.965 270.373C358.965 216.101 312.101 175.328 257.744 182.308ZM1.49989 312.407C11.1188 376.093 47.2128 438.468 98.4286 479.911C193.944 557.201 326.347 561.54 427.841 490.706C446.32 477.809 477.323 447.226 490.214 429.176C515.169 394.239 532.517 352.543 538.457 313.223L540 303.021H474.01H408.02L403.766 315.744C397.106 335.659 386.348 352.427 369.4 369.302C351.818 386.811 335.448 397.002 312.676 404.616C297.663 409.635 296.133 409.823 270.057 409.812C244.778 409.802 242.098 409.5 229.076 405.192C204.493 397.061 190.925 388.989 172.749 371.681C154.411 354.217 139.637 330.626 134.096 309.959L132.236 303.021H66.1589H0.081966L1.49989 312.407Z" fill="#F6F6F6"/>
</svg>
